Normalized EMG Linear Envelopes
nRows=128
nColumns=4

endheader
time	 med_gas_r	  soleus_r	 tib_ant_r	
2.6875	  0.011093	  0.020403	  0.005951	
2.75	  0.011343	  0.022238	  0.006077	
2.8125	  0.011782	  0.024772	  0.006263	
2.875	  0.012075	  0.026641	  0.006452	
2.9375	  0.012177	  0.026577	  0.006488	
3	  0.012307	  0.024640	  0.006303	
3.0625	  0.012650	  0.022765	  0.006210	
3.125	  0.013188	  0.022441	  0.006284	
3.1875	  0.013240	  0.022715	  0.006315	
3.25	  0.012386	  0.022533	  0.006235	
3.3125	  0.011408	  0.021469	  0.005948	
3.375	  0.011120	  0.019971	  0.005478	
3.4375	  0.011639	  0.018849	  0.005106	
3.5	  0.012359	  0.019291	  0.005073	
3.5625	  0.012603	  0.021172	  0.005360	
3.625	  0.012550	  0.023480	  0.005788	
3.6875	  0.012283	  0.025801	  0.006103	
3.75	  0.011729	  0.027652	  0.006126	
3.8125	  0.011349	  0.028761	  0.005912	
3.875	  0.011196	  0.028798	  0.005588	
3.9375	  0.011208	  0.026879	  0.005452	
4	  0.011213	  0.024571	  0.005721	
4.0625	  0.011109	  0.023770	  0.006271	
4.125	  0.011160	  0.023878	  0.006778	
4.1875	  0.011517	  0.023927	  0.007086	
4.25	  0.011761	  0.023509	  0.006907	
4.3125	  0.011727	  0.022435	  0.006355	
4.375	  0.011572	  0.021093	  0.005842	
4.4375	  0.011537	  0.019928	  0.005415	
4.5	  0.011633	  0.019234	  0.005117	
4.5625	  0.011643	  0.019634	  0.004955	
4.625	  0.011981	  0.020689	  0.004923	
4.6875	  0.012395	  0.021139	  0.005009	
4.75	  0.012288	  0.020337	  0.004972	
4.8125	  0.011449	  0.018329	  0.004516	
4.875	  0.009848	  0.015263	  0.003618	
4.9375	  0.008137	  0.012858	  0.002723	
5	  0.007127	  0.013323	  0.002894	
5.0625	  0.008349	  0.020318	  0.006025	
5.125	  0.014646	  0.041008	  0.014597	
5.1875	  0.028926	  0.084933	  0.030219	
5.25	  0.051980	  0.153664	  0.050566	
5.3125	  0.079949	  0.233975	  0.068326	
5.375	  0.105356	  0.306134	  0.079234	
5.4375	  0.117624	  0.349188	  0.084164	
5.5	  0.115145	  0.367135	  0.085564	
5.5625	  0.104211	  0.369299	  0.087632	
5.625	  0.093493	  0.359132	  0.092603	
5.6875	  0.085422	  0.337973	  0.097661	
5.75	  0.081856	  0.319482	  0.099236	
5.8125	  0.085543	  0.325211	  0.101443	
5.875	  0.093051	  0.345572	  0.107104	
5.9375	  0.100949	  0.369346	  0.113875	
6	  0.107677	  0.396343	  0.115067	
6.0625	  0.117065	  0.432269	  0.112931	
6.125	  0.132720	  0.480066	  0.113176	
6.1875	  0.150832	  0.528297	  0.118675	
6.25	  0.166596	  0.564906	  0.126316	
6.3125	  0.175426	  0.579482	  0.130518	
6.375	  0.169547	  0.571307	  0.128074	
6.4375	  0.154483	  0.533774	  0.121745	
6.5	  0.145158	  0.488310	  0.118823	
6.5625	  0.156551	  0.475231	  0.126428	
6.625	  0.200666	  0.519051	  0.144284	
6.6875	  0.277566	  0.611473	  0.167142	
6.75	  0.353824	  0.696294	  0.181525	
6.8125	  0.382254	  0.731840	  0.177490	
6.875	  0.360762	  0.712248	  0.160541	
6.9375	  0.330710	  0.671919	  0.146136	
7	  0.315104	  0.638449	  0.142256	
7.0625	  0.311019	  0.610112	  0.143283	
7.125	  0.313926	  0.599951	  0.145192	
7.1875	  0.328340	  0.613781	  0.148094	
7.25	  0.359474	  0.647964	  0.151004	
7.3125	  0.404320	  0.681720	  0.151341	
7.375	  0.448412	  0.693830	  0.150506	
7.4375	  0.483015	  0.679235	  0.150037	
7.5	  0.505690	  0.663294	  0.147195	
7.5625	  0.509628	  0.668711	  0.140502	
7.625	  0.492456	  0.685029	  0.135258	
7.6875	  0.463421	  0.698086	  0.138663	
7.75	  0.443972	  0.712904	  0.149357	
7.8125	  0.429140	  0.710498	  0.159980	
7.875	  0.405150	  0.678190	  0.162561	
7.9375	  0.377073	  0.631894	  0.156105	
8	  0.362012	  0.603378	  0.146390	
8.0625	  0.371280	  0.591068	  0.142417	
8.125	  0.400717	  0.592191	  0.145757	
8.1875	  0.433822	  0.610405	  0.150776	
8.25	  0.452985	  0.636806	  0.154920	
8.3125	  0.457603	  0.650876	  0.154233	
8.375	  0.463298	  0.655833	  0.149026	
8.4375	  0.482956	  0.659328	  0.145996	
8.5	  0.519693	  0.665437	  0.149183	
8.5625	  0.549173	  0.651304	  0.157754	
8.625	  0.557299	  0.632735	  0.167133	
8.6875	  0.557097	  0.626169	  0.174259	
8.75	  0.557132	  0.629958	  0.176503	
8.8125	  0.551683	  0.648156	  0.170737	
8.875	  0.534648	  0.678851	  0.156101	
8.9375	  0.502901	  0.712851	  0.140082	
9	  0.461253	  0.722644	  0.128458	
9.0625	  0.422793	  0.675192	  0.122595	
9.125	  0.404438	  0.600348	  0.122623	
9.1875	  0.406898	  0.542276	  0.125410	
9.25	  0.415180	  0.529529	  0.127245	
9.3125	  0.416919	  0.548771	  0.129793	
9.375	  0.424866	  0.595130	  0.134278	
9.4375	  0.451526	  0.655529	  0.141130	
9.5	  0.488441	  0.717469	  0.150283	
9.5625	  0.507332	  0.751437	  0.158235	
9.625	  0.499724	  0.731550	  0.160696	
9.6875	  0.484663	  0.687058	  0.158964	
9.75	  0.464950	  0.646519	  0.153683	
9.8125	  0.441077	  0.622080	  0.143526	
9.875	  0.405503	  0.601963	  0.129739	
9.9375	  0.353941	  0.556591	  0.115215	
10	  0.293381	  0.483316	  0.098897	
10.0625	  0.230949	  0.398481	  0.079737	
10.125	  0.166951	  0.298308	  0.060770	
10.1875	  0.106697	  0.193942	  0.044901	
10.25	  0.056531	  0.103979	  0.032859	
10.3125	  0.024301	  0.044961	  0.026234	
10.375	  0.009390	  0.016930	  0.023321	
10.4375	  0.005656	  0.008886	  0.022388	
10.5	  0.006712	  0.009410	  0.020378	
10.5625	  0.008730	  0.012569	  0.015973	
10.625	  0.010194	  0.016408	  0.011087	
